/* XPM */
static char *dc0d7bf69c24486bc826b3e5679f5780LkIOMzComGKsGURE[] = {
/* columns rows colors chars-per-pixel */
"48 48 12 1 ",
"  c None",
". c black",
"X c #751C1C",
"o c #7A705B",
"O c #A72828",
"+ c #D23232",
"@ c #BDAE8D",
"# c #D0C8B7",
"$ c #EEDBB1",
"% c #FCF2DE",
"& c #FFFBF4",
"* c white",
/* pixels */
"                                                ",
"                                                ",
"                                                ",
"                                                ",
"                   *********                    ",
"                ***XXXXXXXXX***                 ",
"             ***XXX+++++++++XXX***              ",
"           **XXX++++++++++++++%XXX**            ",
"         **XX%%%+++++++++++++++%%%XX**          ",
"        *XX%%%%%++++++++++++++++++++XX*         ",
"       *X++%%%%%+++++++++%%%++++++++++X*        ",
"      *X++++%%%+++++++++%%%%%++++++++++X*       ",
"      *X++++++++++++++++%%%%%+++++++++%X*       ",
"     *X+++++++++++++++++%%%%%++++++++%%%X*      ",
"     *X++++++++++++++++++%%%+++++++++%%%X*      ",
"    *X+++++++++++++++++++++++++++++++%%%%X*     ",
"    *X++++++++++++++++++++++++++++++++%%%X*     ",
"    *X+++++++++++++++++++++++++++++++++++X*     ",
"    *X+++++++++++++++++++++++++++++++++++X*     ",
"    *X+++++++++++++%%%+++++++++++++++++++X*     ",
"    *X+%%%++++++++%%%%%++++++++++++++++++X*     ",
"    *X#%%%%+++++++%%%%%+++++++++++%%%+++OX*     ",
"     *X#%%%+++++++%%%%%++++++++++%%%%%+OX*      ",
"     *X##%%++++++++%%%+++++++++++%%%%#OOX*      ",
"      *X##OOOO+++++++++++++++++++#####OX*       ",
"       *XOOOOOOOOOOOOOOOOOOOOOOOOO###OX*        ",
"        *XXOOOOOOOOOOOOOOOOOOOOOOOOOXX*         ",
"         **XXXXXXXXXXXXXXXXXXXXXXXXX**          ",
"           **o@@@@@@@@@@@@@@@@@@@o**            ",
"            *o@@@@@@@@@.&@@@@@@&@o*             ",
"            *o$$$$$$$$$..$$$$$$.$o*             ",
"            *o$$$$$$$$$..$$$$$$.$o*             ",
"            *o$$o$$$$$$$$$$$$$$$$o*             ",
"            *o$$o$$o$$$$$$$$$$$$$o*             ",
"            *o$$@oo@$$$$$$$$$$$$$o*             ",
"            *o$$$@@$$$$$$$$$$$$$$o*             ",
"            *o@$$$$$$$$$$$$$$$$$@o*             ",
"             *o$$$$$$$$$$$$$$$$@o*              ",
"             *o@$$$$$$$$$$$$$$@oo*              ",
"              *o@@$$$$$$@o@@@@oo*               ",
"               *oo@@@@@@oooooooo*               ",
"                **ooooooooooooo*                ",
"                  *******ooooo*                 ",
"                         *****                  ",
"                                                ",
"                                                ",
"                                                ",
"                                                "
};
