/* XPM */
static char *dbb91c7ff8eb49a1f90755718044a25fe8EcNQXO1z5njEQL[] = {
/* columns rows colors chars-per-pixel */
"32 32 8 1 ",
"  c None",
". c black",
"X c #C37100",
"o c #DC8C00",
"O c #FFA200",
"+ c #6110A2",
"@ c #8539E1",
"# c #9241F3",
/* pixels */
"                                ",
"                                ",
"                                ",
"                                ",
"        +++                     ",
"         +++                    ",
"         +++                    ",
"           ++                   ",
"             #####              ",
"             ######             ",
"             #######            ",
"             ##.##XOOOOOO       ",
"             #####OOOOOOO       ",
"             ######ooooo        ",
"             #######            ",
"             #@#####            ",
"             @#@####@           ",
"             @#@####@           ",
"            @##@####@           ",
"            @##@####@           ",
"            @##@####@           ",
"            @##@####@           ",
"           @###@####@           ",
"           @##@#####            ",
"          @@@@######            ",
"             #######            ",
"             #     #            ",
"             #     #            ",
"            OO     OO           ",
"                                ",
"                                ",
"                                "
};
