/* XPM */
static char *_9c37f3d8d974a8eec14b15bb3b7049bei0o3C74ED29Q0V7[] = {
/* columns rows colors chars-per-pixel */
"48 48 152 2 ",
"   c None",
".  c black",
"X  c #000910",
"o  c #002F4E",
"O  c #00374E",
"+  c #003455",
"@  c #003456",
"#  c #003D56",
"$  c #003D63",
"%  c #003965",
"&  c #003A66",
"*  c #004356",
"=  c #004755",
"-  c #00485A",
";  c #004C5A",
":  c #004D63",
">  c #004E63",
",  c #005063",
"<  c #005263",
"1  c #005463",
"2  c #004877",
"3  c #004C7C",
"4  c #015D77",
"5  c #355C63",
"6  c #00617C",
"7  c #555555",
"8  c gray39",
"9  c #005B92",
"0  c #005C97",
"q  c #005E9A",
"w  c #00619A",
"e  c #006E9A",
"r  c #007597",
"t  c #007E98",
"y  c #0063A1",
"u  c #016BAC",
"i  c #0071A1",
"p  c #007DB6",
"a  c #008392",
"s  c #00899A",
"d  c #0088A8",
"f  c #0188A8",
"g  c #008FA8",
"h  c #0189AC",
"j  c #0089C7",
"k  c #019DC0",
"l  c #008DD6",
"z  c #008ADD",
"x  c #018ADD",
"c  c #0098DD",
"v  c #01A0C0",
"b  c #00A2C7",
"n  c #00A5C7",
"m  c #00B7D6",
"M  c #0091FE",
"N  c #0191FE",
"B  c #0092FE",
"V  c #0192FE",
"C  c #009BFE",
"Z  c #019BFE",
"A  c #019CFE",
"S  c #019FFE",
"D  c #039EFE",
"F  c #029FFE",
"G  c #039FFE",
"H  c #00ABE7",
"J  c #01BDEB",
"K  c #01A0FE",
"L  c #02A0FE",
"P  c #03A4FE",
"I  c #04A5FE",
"U  c #04A7FE",
"Y  c #05A7FE",
"T  c #00ABFE",
"R  c #04A8FE",
"E  c #05A8FE",
"W  c #00ACFE",
"Q  c #00ADFE",
"!  c #02ACFE",
"~  c #03ACFE",
"^  c #01AEFE",
"/  c #00AFFE",
"(  c #01AFFE",
")  c #03AEFE",
"_  c #03AFFE",
"`  c #01B2FE",
"'  c #00B4FE",
"]  c #00B5FE",
"[  c #00B6FE",
"{  c #00B7FE",
"}  c #01B7FE",
"|  c #00B9FE",
" . c #00BAFE",
".. c #01BAFE",
"X. c #00BEFE",
"o. c #00BFFE",
"O. c #01BFFE",
"+. c #00C4DD",
"@. c #00C5DD",
"#. c #00C7EB",
"$. c #00C2ED",
"%. c #01C2EE",
"&. c #01C6ED",
"*. c #00C1FE",
"=. c #01C1FE",
"-. c #00C2FE",
";. c #01C2FE",
":. c #00C3FE",
">. c #01C3FE",
",. c #00C5FD",
"<. c #00C4FE",
"1. c #01C4FE",
"2. c #00C5FE",
"3. c #01C5FE",
"4. c #00C6FE",
"5. c #01C7FE",
"6. c #00C8FE",
"7. c #01C8FE",
"8. c #00C9FE",
"9. c #01C9FE",
"0. c #02C9FE",
"q. c #00CAFE",
"w. c #01CAFE",
"e. c #01CBFE",
"r. c #00CDFE",
"t. c #01CDFE",
"y. c #00CFFE",
"u. c #01CFFE",
"i. c #02CFFE",
"p. c #00D1FE",
"a. c #00D2FE",
"s. c #00D3FE",
"d. c #01D3FE",
"f. c #00D4FE",
"g. c #00D6FE",
"h. c #00D7FE",
"j. c #00D8FE",
"k. c #00D9FE",
"l. c #00DCFE",
"z. c #00DDFE",
"x. c #00E0FE",
"c. c #00E2FE",
"v. c #1DE0FE",
"b. c #37E7FE",
"n. c #71DAE7",
"m. c #66ECFE",
"M. c #989898",
"N. c #B6B6B6",
"B. c #87ECFE",
"V. c gray78",
"C. c #DDDDDD",
"Z. c #FEFEFE",
/* pixels */
"                                                                                                ",
"                                                                                                ",
"                                                                                                ",
"                                                                                                ",
"                                                                                                ",
"                                                                                                ",
"                                                                                                ",
"                                                                                                ",
"                                                                                                ",
"                                                                                                ",
"                                                                                                ",
"                                                                                                ",
"                                  . . . .             . . . .                                   ",
"                                . . . . .             . . . . .                                 ",
"                                * > > , -             ; 1 5 8 7                                 ",
"                            . . r 3.9.t.f . .     . . g j.B.Z.M.. .                             ",
"                            . . r 3.9.t.f . .     . . g j.B.Z.M.. .                             ",
"                        . . p j H *.3.9.J b k . . v n #.j.v.b.n.V.N.. .                         ",
"                        . . c Q ..*.3.9.t.t.$.. . &.d.j.d.z.c.m.Z.C.. .                         ",
"                        . . c ` ..*.3.9.9.p.$.. . &.d.d.j.z.c.m.Z.C.. .                         ",
"                        . . z L Q { { | ..t.9.t.t.p.p.d.d.j.j.z.c.+.. .                         ",
"                        . . z D Q { { | ..9.9.t.t.t.p.p.d.j.j.z.c.+.. .                         ",
"                          . 9 w l T Q ` | 3.*.9.9.t.t.t.p.d.j.m s a .                           ",
"                            . . 0 Z L I Q | | *.*.3.9.9.t.p.p.t . .                             ",
"                            . . 0 Z D I ~ | | *.*.9.9.9.t.t.d.t . .                             ",
"                                @ $ u D I ) ` | | *.*.9.9.h , =                                 ",
"                                . . 2 Z G I I { { *...3.9.4 . .                                 ",
"                                  . 3 Z I I I { { ..*.3.9.6 .                                   ",
"                                      . + Z D T I { { # .                                       ",
"                                      . + Z Z I I ` { # .                                       ",
"                                      . o q y D G i e O .                                       ",
"                                          . X V V X .                                           ",
"                                          . X V V X .                                           ",
"                                              & &                                               ",
"                                              . .                                               ",
"                                              . .                                               ",
"                                                                                                ",
"                                                                                                ",
"                                                                                                ",
"                                                                                                ",
"                                                                                                ",
"                                                                                                ",
"                                                                                                ",
"                                                                                                ",
"                                                                                                ",
"                                                                                                ",
"                                                                                                ",
"                                                                                                "
};
