/* XPM */
static char *_0eb09a530784cebdfcde815cbd7a0b7t6ykppnaVOlIEkyI[] = {
/* columns rows colors chars-per-pixel */
"48 48 144 2 ",
"   c None",
".  c #000000",
"X  c #000709",
"o  c #000A0D",
"O  c #000D10",
"+  c #001116",
"@  c #00161B",
"#  c #00191F",
"$  c #001C23",
"%  c #00232C",
"&  c #002731",
"*  c #002935",
"=  c #002E3A",
"-  c #00313E",
";  c #003543",
":  c #003847",
">  c #003749",
",  c #003B4C",
"<  c #003D52",
"1  c #003F59",
"2  c #004155",
"3  c #00445B",
"4  c #00485D",
"5  c #004562",
"6  c #004A64",
"7  c #004669",
"8  c #004E6A",
"9  c #00526E",
"0  c #004772",
"q  c #004D74",
"w  c #005374",
"e  c #005A76",
"r  c #00567C",
"t  c #005A7E",
"y  c #004E80",
"u  c #005582",
"i  c #005B84",
"p  c #00548D",
"a  c #005E89",
"s  c #005593",
"d  c #005B94",
"f  c #005D9D",
"g  c #006082",
"h  c #00628C",
"j  c #006397",
"k  c #006995",
"l  c #00619C",
"z  c #006C9A",
"x  c #00709B",
"c  c #005CA2",
"v  c #005CAA",
"b  c #0063A4",
"n  c #006CA2",
"m  c #0064AA",
"M  c #006DAF",
"N  c #007AA5",
"B  c #0072AD",
"V  c #007EA8",
"C  c #0062B2",
"Z  c #0069B5",
"A  c #0064BC",
"S  c #006ABB",
"D  c #0075B4",
"F  c #007BB5",
"G  c #0074BD",
"H  c #007EB8",
"J  c #0063C3",
"K  c #006CC5",
"L  c #0064CB",
"P  c #006CCB",
"I  c #0073C5",
"U  c #007AC3",
"Y  c #0073CB",
"T  c #007CCA",
"R  c #0065D2",
"E  c #006BD2",
"W  c #0083B6",
"Q  c #0089B7",
"!  c #0086BD",
"~  c #008BBC",
"^  c #0093BD",
"/  c #0091BF",
"(  c #0091BC",
")  c #0094BE",
"_  c #0092BA",
"`  c #0087C1",
"'  c #0087C2",
"]  c #0081C7",
"[  c #0084C4",
"{  c #0086C7",
"}  c #0085C2",
"|  c #008AC0",
" . c #008BC0",
".. c #008BC3",
"X. c #008DC4",
"o. c #008EC4",
"O. c #008EC4",
"+. c #0080CA",
"@. c #0087CC",
"#. c #0083CB",
"$. c #008ECA",
"%. c #0089CB",
"&. c #0092C3",
"*. c #0093C3",
"=. c #0094C1",
"-. c #0097C0",
";. c #0097C2",
":. c #0091C5",
">. c #0091C6",
",. c #0095C6",
"<. c #0098C1",
"1. c #0098C2",
"2. c #0099C2",
"3. c #0099C4",
"4. c #0098C5",
"5. c #009BC4",
"6. c #009AC5",
"7. c #0099C6",
"8. c #0099C7",
"9. c #009BC6",
"0. c #009BC7",
"q. c #0093CA",
"w. c #009AC8",
"e. c #009AC9",
"r. c #009CC8",
"t. c #009ECE",
"y. c #0098CD",
"u. c #0081D3",
"i. c #0093D2",
"p. c #009DD2",
"a. c #009BD2",
"s. c #00A0CA",
"d. c #00A1CB",
"f. c #00A0CC",
"g. c #00A3CD",
"h. c #00A4CE",
"j. c #00A2DC",
"k. c #00A4E3",
"l. c #00ADE7",
"z. c #00A5E8",
"x. c #00ACE8",
"c. c #00ACEA",
"v. c #00AFED",
"b. c #00AAEC",
/* pixels */
"                                                                                                ",
"                                                                                                ",
"                                                                                                ",
"                                      ~ 1.s.6.1.r.) ^ ^ ^                                       ",
"                                  _ s.6.N i t r r a i j F ~ ~                                   ",
"                              ) h.^ h q 4 * = - % 2 < 4 w s G `                                 ",
"                            1.h.V t 2 & = % @ + X o # * 2 4 r m { ~                             ",
"                          1.9.z 6 $ $ + O X . . . . . . o * ; 5 p I ..                          ",
"                        ;.6.k 3 $ X . . . . . . . . . . X + & , 6 p K @.                        ",
"                      f.r.k 3 & @ X . . . . . . . . . . . . X + % 3 a Y ..                      ",
"                    e.6.z 6 : $ X . . . . . . . . . . . . . . + = : 5 c Y                       ",
"                    1.W t ; $ o . . . . . . . . . . . . . . . . + ; 4 i Z T                     ",
"                    p.k < # . . . . . . . . . . . . . . . . . . X # , 6 d Y >.                  ",
"                  ) W q & O . . . . . . . . . . . . . . . . . . . . # ; w C T                   ",
"                  6.z 8 $ X . . . . . . . . . . . . . . . . . . . . . $ 2 d K >.                ",
"                ;.~ i = O . . . . . . . . . . . . . . . . . . . . . . o , a Z [                 ",
"                9.n 9 * o . . . . . . . . . . . . . . . . . . . . . . . = t m Y                 ",
"                ;.h 9 , O . . . . . . . . . . . . . . . . . . . . . . . # 4 j K p.              ",
"              ;.~ h 3 - X . . . . . . . . . . . . . . . . . . . . . . . # , h L X.              ",
"              ~ H t ; $ . . . . . . . . . . . . . . . . . . . . . . . . $ 4 i Z #.              ",
"              &.D t ; . . . . . . . . . . . . . . . . . . . . . . . . . o 2 9 m Y               ",
"              ,.B 5 % . . . . . . . . . . . . . . . . . . . . . . . . . o * e c I               ",
"              >.z 2 $ . . . . . . . . . . . . . . . . . . . . . . . . . . * e c I               ",
"              X.j 2 * X . . . . . . . . . . . . . . . . . . . . . . . . . - 6 c K               ",
"              $.d > # . . . . . . . . . . . . . . . . . . . . . . . . . . , e l I x.            ",
"              ..n w ; . . . . . . . . . . . . . . . . . . . . . . . . . . : e j K x.            ",
"              ! n 9 , . . . . . . . . . . . . . . . . . . . . . . . . . . = 6 f P x.            ",
"              X.M w - X . . . . . . . . . . . . . . . . . . . . . . . . . , w b K v.            ",
"              q.D 7 * + . . . . . . . . . . . . . . . . . . . . . . . . # < r A u.              ",
"              O.T u - X . . . . . . . . . . . . . . . . . . . . . . . X % ; h P q.              ",
"                #.p < % . . . . . . . . . . . . . . . . . . . . . . . . & 6 z E p.              ",
"                %.m 8 , o . . . . . . . . . . . . . . . . . . . . . . $ = 6 c Y j.              ",
"                X.G q ; - o . . . . . . . . . . . . . . . . . . . . . + - t A u.                ",
"                  u.f 6 : $ X . . . . . . . . . . . . . . . . . . . o , 6 d R $.                ",
"                  %.Z t 3 , @ . . . . . . . . . . . . . . . . . . X % = i Z Y z.                ",
"                  ~ T h 6 ; $ o . . . . . . . . . . . . . . . . . . $ 6 c P q.                  ",
"                    @.S i 3 = % O X . . . . . . . . . . . . . . X * , u L T                     ",
"                      T C i 6 - % $ . . . . . . . . . . . . . O $ = 7 c E p.                    ",
"                      W I j 9 , % o . . . . . . . . . . . . + * ; 5 d R $.                      ",
"                        ! Y j 6 : = + X X . . . . . . X # = * - 3 s L I b.                      ",
"                          ` E s 1 * ; = @ o . . . . X $ & = > 3 d P u.b.                        ",
"                            #.P c w < > ; = % $ $ * = ; < < q c R u.b.                          ",
"                              [ E A d r 8 < ; ; * * > > q f J E i.                              ",
"                                y.#.K J v s y 7 7 0 p v J P #.k.                                ",
"                                    e.! U K L J L L K T i.j.                                    ",
"                                            a.a.i.k.z.                                          ",
"                                                                                                ",
"                                                                                                "
};
