/* XPM */
static char *d8389e792ad24f2c9e6a714b2283b5c4D2IhrFVXDvmYZ8Tu[] = {
/* columns rows colors chars-per-pixel */
"48 48 118 2 ",
"   c None",
".  c black",
"X  c #07010A",
"o  c #09030D",
"O  c #0C0511",
"+  c #0F0815",
"@  c #110217",
"#  c #110218",
"$  c #13091B",
"%  c #161617",
"&  c #1B1B1B",
"*  c #170620",
"=  c #180521",
"-  c #1E082A",
";  c #20132E",
":  c #2B073B",
">  c #251334",
",  c #29173B",
"<  c #202020",
"1  c #2E0D41",
"2  c #300D43",
"3  c #360E4C",
"4  c #321147",
"5  c #331248",
"6  c #3B0F53",
"7  c #3C1453",
"8  c #3F1759",
"9  c #3F1959",
"0  c #41195B",
"q  c #42245D",
"w  c #4D0D6C",
"e  c #461C62",
"r  c #521573",
"t  c #551877",
"y  c #561A7A",
"u  c #591D7C",
"i  c #452462",
"p  c #532A75",
"a  c #562C79",
"s  c #592D7E",
"d  c gray49",
"f  c #5B1F80",
"g  c #5E2384",
"h  c #602586",
"j  c #622788",
"k  c #652C8D",
"l  c #672F91",
"z  c #682F91",
"x  c #673092",
"c  c #6A3295",
"v  c #6C3699",
"b  c #6D3699",
"n  c #6C3799",
"m  c #6D3799",
"M  c #6C3698",
"N  c #6C3598",
"B  c #6B3598",
"V  c #6D389A",
"C  c #6E389A",
"Z  c #6E389B",
"A  c #6F389B",
"S  c #6F399B",
"D  c #6E389C",
"F  c #6F389C",
"G  c #6E399C",
"H  c #6F399C",
"J  c #6F3A9C",
"K  c #6F3B9C",
"L  c #6F3A9D",
"P  c #6F3B9D",
"I  c #703A9C",
"U  c #703B9C",
"Y  c #703A9D",
"T  c #703B9D",
"R  c #713C9F",
"E  c #713D9F",
"W  c #723C9F",
"Q  c #723D9F",
"!  c #713CA0",
"~  c #713DA0",
"^  c #723CA0",
"/  c #723DA0",
"(  c #7542A4",
")  c #7642A4",
"_  c #7642A5",
"`  c #7643A5",
"'  c #7743A5",
"]  c #7743A6",
"[  c #7743A7",
"{  c #7644A5",
"}  c #7744A5",
"|  c #7644A6",
" . c #7744A6",
".. c #7744A7",
"X. c #7745A7",
"o. c #7844A7",
"O. c #7845A7",
"+. c #7744A8",
"@. c #7844A8",
"#. c #807B85",
"$. c #A27FC2",
"%. c #8D8D8D",
"&. c #A29FA6",
"*. c #A2A2A1",
"=. c #A2A2A2",
"-. c #A887C6",
";. c #A888C6",
":. c #DACCE7",
">. c #E6DDEF",
",. c #EFE9F4",
"<. c #EFEAF4",
"1. c #EFEAF5",
"2. c #FEFEFE",
"3. c #FFFEFE",
"4. c #FEFFFE",
"5. c #FFFFFE",
"6. c #FEFEFF",
"7. c #FFFEFF",
/* pixels */
"                  . . . . . . . .                             . . . . . . . .                   ",
"                  . . . . . . . .                             . . . . . . . .                   ",
"                  . . . . . . . .                             . . . . . . . .                   ",
"                  . . . . . . . .                             . . . . . . . .                   ",
"                  O o o o O o O o                             o o o o % % % &                   ",
"          . . . O x x x l c c c b > . . .             . . . , / R / ) ,.6.6.6.< . . .           ",
"          . . . O l l c l B N N b > . . . .         . . . . > / ! T T <.5.6.6.& . . .           ",
"          . . . O l l l x B v v B > . . . .         . . . . > / / R R <.5.5.6.& . . .           ",
"          . . . O x x x z v v B c > . . . .         . . . . > / / / T ,.6.6.6.& . . .           ",
"          . . . O x x x l B B B B > . . . .         . . . . > / / R / ,.6.6.6.& . . .           ",
"        : 7 7 7 0 z z k l c c c c p i i i q         q i i i a / / / ~ $.-.-.-.&.*.*.*.d         ",
". . . . 4 g f g g k k z l c c c c B b b b p . . . . a F F F T / / / P ' ' X.X.<.6.6.6.%.. . . . ",
". . . . 5 g g f s k k k z z c c c B B M n p . . . . a G F P R / P / / ' ' ' ' <.6.6.6.%.. . . . ",
". . . . 4 g u g f k z k z c c c c B b b M a . . . . a F F F F / / / / ' ' ' ' <.6.6.5.%.. . . . ",
". . . . 4 g g g g z k k z z N c x B b n n p . . . . a F F F F / / / P ' ' ( ) <.5.5.6.%.. . . . ",
". . . . 4 u u u f k k k k z z z x B M B n s $ $ $ $ s G G G F / / / P ( ) ) ) :.>.>.>.#.. . . . ",
". . . . 2 r t r t g g h h j j j j z x M B c b B B c b B G B G G U T T R R R / X.[ [ +.q . . . . ",
". . . . 1 t r t t h h h h j j j j x c c c c c b c b B b B n G U G U U R R R / ' O.@.@.q . . . . ",
". . . . 1 r t r t j h h h j j j j z c x x c b c b b b b m n m K U U U R / / / X.O.@.+.q . . . . ",
". . . . 2 t r r t g h h h j j j j x x M c c b b b c b B M m G U U U U R / / / X.+.+.O.q . . . . ",
". . . . 2 r t t t g j g h j j j j x c c M c c b B B n m n M m K U U R R R / / O.X.+.X.i . . . . ",
"          * * * - t y y y u u f u j j j k k z z x x c c B c B B M m B G P F T , ; ; ;           ",
"          . . . X r r r r y y y y h j j j j z k k k c c c c c c c c B G F F G o . . .           ",
"          . . . o r r r r y y y y h j h j j z k k x c c c c c c c B c G F F G O . . .           ",
"          . . . o r r r r t y y y g j j j j k k k k x c c c c M c c m m U U G O . . .           ",
"          . . . o r r r r y y y y f j j j j z k x k c c c B c c c M c U G G G O . . .           ",
"                o 6 6 6 6 t t t y f h h h h j k k j z z x z x c c c c p p p p +                 ",
"                  . . . o r r r r t y u u u h h h g k k k k z x z c x O . . .                   ",
"                  . . . o w r r r t y u y u h h h h k k k k k x c z z O . . .                   ",
"                  . . . o r r r r t y u y u h h h s j k k k k c z c c o . . .                   ",
"                  . . . o r r r r y u y y s h h h h k k k k k c c x x O . . .                   ",
"                  . . . o r r r r t y u y u h h h h j k k k z z x x c O . . .                   ",
"                          @ + + + 6 r r r r u u u u h j h h e $ $ $ $                           ",
"                          . . . . 3 r r r r u y u y g h g j 0 . . . .                           ",
"                          . . . . 3 r r r r u u y y g g g g 0 . . . .                           ",
"                          . . . . 2 r r r r u y u u g g j j 0 . . . .                           ",
"                          . . . . 6 r r r r u u y u g j g j 0 . . . .                           ",
"                                  o X X X $ w w w w * o X X o                                   ",
"                                    . . . # w w w w # . . .                                     ",
"                                    . . . # w w w w # . . .                                     ",
"                                    . . . @ w w w w # . . .                                     ",
"                                    . . . @ w w w w # . . .                                     ",
"                                            : : : :                                             ",
"                                            . . . .                                             ",
"                                            . . . .                                             ",
"                                            . . . .                                             ",
"                                            . . . .                                             ",
"                                            . . . .                                             "
};
