/* XPM */
static char *_6419_1ba211329903c6314db60c56ecdbf416580330b1507c630a0c6101cdd53e9ed4[] = {
/* columns rows colors chars-per-pixel */
"48 48 141 2 ",
"   c #0A1D04",
".  c #231E1C",
"X  c #281F1B",
"o  c #0D2106",
"O  c #0F2408",
"+  c #112509",
"@  c #152C0D",
"#  c #182F0E",
"$  c #17320E",
"%  c #19320F",
"&  c #1B2E10",
"*  c #1B3511",
"=  c #1E3A12",
"-  c #20390F",
";  c #2E2D16",
":  c #2C211E",
">  c #2A2A19",
",  c #35231E",
"<  c #3A231F",
"1  c #3B2F1E",
"2  c #213514",
"3  c #223D13",
"4  c #2F3D17",
"5  c #273418",
"6  c #2D3619",
"7  c #2C3F1B",
"8  c #35351C",
"9  c #3E361E",
"0  c #323E1B",
"q  c #362622",
"w  c #3E2420",
"e  c #362820",
"r  c #3B2A22",
"t  c #3E3D20",
"y  c #42261D",
"u  c #432F1E",
"i  c #43341F",
"p  c #472621",
"a  c #422B24",
"s  c #4C2A23",
"d  c #542A23",
"f  c #582E26",
"g  c #5A2F28",
"h  c #4C3326",
"j  c #55322A",
"k  c #5E322B",
"l  c #55382A",
"z  c #63362E",
"x  c #67392D",
"c  c #6B3B2C",
"v  c #663931",
"b  c #6F3F31",
"n  c #244315",
"m  c #2A4515",
"M  c #274A16",
"N  c #2A4B16",
"B  c #264618",
"V  c #2D471B",
"C  c #274818",
"Z  c #2A4C19",
"A  c #334C16",
"S  c #33421D",
"D  c #3B451F",
"F  c #304E1C",
"G  c #3D4C1F",
"H  c #2B5216",
"J  c #2D541A",
"K  c #2F581A",
"L  c #335317",
"P  c #34541B",
"I  c #3B561F",
"U  c #325B1B",
"Y  c #3A5C1D",
"T  c #35631D",
"R  c #3B621E",
"E  c #396A1E",
"W  c #3D711F",
"Q  c #3C4521",
"!  c #3F5520",
"~  c #3D5F21",
"^  c #3C6421",
"/  c #3B6C20",
"(  c #3E7321",
")  c #44461E",
"_  c #44631E",
"`  c #4A661E",
"'  c #456E1E",
"]  c #4C691E",
"[  c #404722",
"{  c #455622",
"}  c #4A5522",
"|  c #4B5822",
" . c #5B5725",
".. c #5A5924",
"X. c #615F26",
"o. c #694130",
"O. c #734333",
"+. c #7A4736",
"@. c #7E4A36",
"#. c #446620",
"$. c #496423",
"%. c #436D20",
"&. c #4A6B21",
"*. c #566024",
"=. c #526E23",
"-. c #437422",
";. c #4B7523",
":. c #437C23",
">. c #4A7D23",
",. c #537222",
"<. c #527B24",
"1. c #5C7E25",
"2. c #854F38",
"3. c #865038",
"4. c #8E553B",
"5. c #468224",
"6. c #4B8424",
"7. c #4D8E27",
"8. c #548525",
"9. c #5D8226",
"0. c #548E27",
"q. c #5B8827",
"w. c #5E8B28",
"e. c #5B9529",
"r. c #628526",
"t. c #6A8226",
"y. c #648826",
"u. c #668D29",
"i. c #6A8E29",
"p. c #62972A",
"a. c #699229",
"s. c #66982B",
"d. c #6D9D2C",
"f. c #76932A",
"g. c #749B2C",
"h. c #789D2D",
"j. c #71A12D",
"k. c #7BA52F",
"l. c #80A02E",
"z. c #8BAE31",
"x. c None",
/* pixels */
"x.x.x.x.x.x.x.x.x.x.x.x.x.x.x.x.x.x.x.x.x.x.x.x.x.x.x.x.x.x.x.x.x.x.x.x.x.x.x.x.x.x.x.x.x.x.x.x.",
"x.x.x.x.x.x.x.x.x.x.x.x.x.x.x.x.x.x.x.x.x.x.x.x.x.x.x.x.x.x.x.x.x.x.x.x.x.x.x.x.x.x.x.x.x.x.x.x.",
"x.x.x.x.x.x.x.x.x.x.x.x.x.x.x.x.x.x.x.x.x.x.x.x.x.x.x.x.x.x.x.x.x.x.x.x.x.x.x.x.x.x.x.x.x.x.x.x.",
"x.x.x.x.x.x.x.x.x.x.x.x.x.x.x.x.x.x.x.x.x.x.x.x.x.x.x.x.x.x.x.x.x.x.x.x.x.x.x.x.x.x.x.x.x.x.x.x.",
"x.x.x.x.x.x.x.x.x.x.x.x.x.x.x.x.x.x.x.x.* x.x.  @ = x.x.x.x.x.x.x.x.x.x.x.x.x.x.x.x.x.x.x.x.x.x.",
"x.x.x.x.x.x.x.x.x.x.x.x.x.x.x.x.  o @ O = K 3 M K *   + $ = 3 * x.x.x.x.x.x.x.x.x.x.x.x.x.x.x.x.",
"x.x.x.x.x.x.x.x.x.x.x.x.x.x.o = $ # K 3 = K / K ;._ M T / 3 n * x.x.x.x.x.x.x.x.x.x.x.x.x.x.x.x.",
"x.x.x.x.x.x.x.x.x.x.x.x.x.O = # n N E N M H :.( e.P -.E 0.#.* n * x.x.x.x.x.x.x.x.x.x.x.x.x.x.x.",
"x.x.x.x.x.x.x.x.x.x.x.x.x.o H n :.P H = = * J Z E N N M ' ;.Z w.I = x.x.x.x.x.x.x.x.x.x.x.x.x.x.",
"x.x.x.x.x.x.x.x.x.x.x.x.x.O n = Z / U 8.B a K &.* # Y 8 ;._ :.d.=.= = $ $ x.x.x.x.x.x.x.x.x.x.x.",
"x.x.x.x.x.x.x.x.x.x.x.  O W H C 5.( E Y 3 a K e.1.3 7 s P U U j.,.* n B * x.x.x.x.x.x.x.x.x.x.x.",
"x.x.x.x.x.x.x.x.x.x.o % E n ! J 7.:.K n > s H :.e.z.3 5 u S K r.n J 5.* * x.x.x.x.x.x.x.x.x.x.x.",
"x.x.x.x.x.x.x.x.x.o @ * = n t 8 T / K n > { $ * 7.%.K P 0 3 T e.y.^ :.= $ x.x.x.x.x.x.x.x.x.x.x.",
"x.x.x.x.x.x.x.x.x.o # n * J :.Q $.9./ Z n Z N N C K -.;.0.r.P 7.i.%.J $ = x.x.x.x.x.x.x.x.x.x.x.",
"x.x.x.x.x.x.x.x.x.o = T C :.( U / = / = E 9.C E 9.K %.V K 8.6.q.U 8.,.` B # x.x.x.x.x.x.x.x.x.x.",
"x.x.x.x.x.x.x.x.x.x.= Z C ( C :.J J 7.n J d.N :.f.3 B * L 9.>.d._ Y i.N = C x.x.x.x.x.x.x.x.x.x.",
"x.x.x.x.x.x.x.x.x.o * = = K E U J ^ >.-.n / ` Z i.=.T ;.-.p.R a.Q i ` * K W x.x.x.x.x.x.x.x.x.x.",
"x.x.x.x.x.x.x.x.x.$ B 3 * 5.E N T J 6.5.Z U t.m / / U s.P ^ %.^ V 2 6.a.T M x.x.x.x.x.x.x.x.x.x.",
"x.x.x.x.x.x.x.x.  M = % C ^ -.-.n U T J :.7.*.9 -.7.B { C a.-.C Z * -.1.-.= x.x.x.x.x.x.x.x.x.x.",
"x.x.x.x.x.x.x.x.+ 3 E U = = / H T 6.<.N / U / 9 J U 7 } r.F >.3 U Z r.1.F # x.x.x.x.x.x.x.x.x.x.",
"x.x.x.x.x.x.x.x.@ U T E E % 8 3 3 H :.h.m =.U w.' 1.8 4 U W g.] k.T K H n x.x.x.x.x.x.x.x.x.x.x.",
"x.x.x.x.x.x.x.o @ n E M E U ; 1 C Z / R >.p.1.n 7.e.u.T W 7.h.P 6.6.N :.3 x.x.x.x.x.x.x.x.x.x.x.",
"x.x.x.x.x.x.x.x.O * B # U = U 9 Z / J = N ;.e.9.U 7.r.A :.-.Y =.0 -.h.3 3 x.x.x.x.x.x.x.x.x.x.x.",
"x.x.x.x.x.x.x.x.x.O % K $ E :.S 7 / J B 6.Y ( k.J T -.) B 3 L / 1 8 A >.R x.x.x.x.x.x.x.x.x.x.x.",
"x.x.x.x.x.x.x.x.x.x.+ = = E E * R :.U K 7.u.M T C g.~ r V <.` T K <.Y n P # x.x.x.x.x.x.x.x.x.x.",
"x.x.x.x.x.x.x.x.x.x.  n M n n @ T :.M 3 T 9.n T ,.Y Q t C / p.&.T 7.K >.^ # x.x.x.x.x.x.x.x.x.x.",
"x.x.x.x.x.x.x.x.x.x.  @ U * = # $ = ; ; E d.H 7.f.3 ; = 3 ^ :.a.#.:.J :.= x.x.x.x.x.x.x.x.x.x.x.",
"x.x.x.x.x.x.x.x.x.x.o @ * $ M = E M 3 r Q :.n 5.k.A & = ( h.Y -.P ;.m K * x.x.x.x.x.x.x.x.x.x.x.",
"x.x.x.x.x.x.x.x.x.x.x.o @ + O * E 5.T L 5 n * y.L = -.J :.;.Z = n &.A # x.x.x.x.x.x.x.x.x.x.x.x.",
"x.x.x.x.x.x.x.x.x.x.x.x.x.x.x.o # K U 5.:.T U 7.i.' T J # N -   @ $ * x.x.x.x.x.x.x.x.x.x.x.x.x.",
"x.x.x.x.x.x.x.x.x.x.x.x.x.x.x.x.    # K 7.a.P :.=.| T O x.x.x.x.o # x.x.x.x.x.x.x.x.x.x.x.x.x.x.",
"x.x.x.x.x.x.x.x.x.x.x.x.x.x.x.x.x.x.x.$ E s.X.} f ..x.x.x.x.x.x.x.x.x.x.x.x.x.x.x.x.x.x.x.x.x.x.",
"x.x.x.x.x.x.x.x.x.x.x.x.x.x.x.x.x.x.x.x.H  .d d b h x.x.x.x.x.x.x.x.x.x.x.x.x.x.x.x.x.x.x.x.x.x.",
"x.x.x.x.x.x.x.x.x.x.x.x.x.x.x.x.x.x.x.x.x.y d z 4.j x.x.x.x.x.x.x.x.x.x.x.x.x.x.x.x.x.x.x.x.x.x.",
"x.x.x.x.x.x.x.x.x.x.x.x.x.x.x.x.x.x.x.x.x.p f v +.l x.x.x.x.x.x.x.x.x.x.x.x.x.x.x.x.x.x.x.x.x.x.",
"x.x.x.x.x.x.x.x.x.x.x.x.x.x.x.x.x.x.x.x.x.p f v @.l x.x.x.x.x.x.x.x.x.x.x.x.x.x.x.x.x.x.x.x.x.x.",
"x.x.x.x.x.x.x.x.x.x.x.x.x.x.x.x.x.x.x.x.x.p f v 3.h x.x.x.x.x.x.x.x.x.x.x.x.x.x.x.x.x.x.x.x.x.x.",
"x.x.x.x.x.x.x.x.x.x.x.x.x.x.x.x.x.x.x.x.q d f z 3.j x.x.x.x.x.x.x.x.x.x.x.x.x.x.x.x.x.x.x.x.x.x.",
"x.x.x.x.x.x.x.x.x.x.x.x.x.x.x.x.x.x.x.x.< d f f @.O.e x.x.x.x.x.x.x.x.x.x.x.x.x.x.x.x.x.x.x.x.x.",
"x.x.x.x.x.x.x.x.x.x.x.x.x.x.x.x.x.x.x.x.< d v v 4.4.e x.x.x.x.x.x.x.x.x.x.x.x.x.x.x.x.x.x.x.x.x.",
"x.x.x.x.x.x.x.x.x.x.x.x.x.x.x.x.x.x.x.x., d k v 2.4.r x.x.x.x.x.x.x.x.x.x.x.x.x.x.x.x.x.x.x.x.x.",
"x.x.x.x.x.x.x.x.x.x.x.x.x.x.x.x.x.x.x., s d d f O.4.j : r x.x.x.x.x.x.x.x.x.x.x.x.x.x.x.x.x.x.x.",
"x.x.x.x.x.x.x.x.x.x.x.x.x.x.x.x.x.x.< s d f z k O.4.c s a x.x.x.x.x.x.x.x.x.x.x.x.x.x.x.x.x.x.x.",
"x.x.x.x.x.x.x.x.x.x.x.x.x.x.x.x.x.. : , k z f d O.v O.r x.x.x.x.x.x.x.x.x.x.x.x.x.x.x.x.x.x.x.x.",
"x.x.x.x.x.x.x.x.x.x.x.x.x.x.x.x.x.x.x.x.q f j q : w j o.x.x.x.x.x.x.x.x.x.x.x.x.x.x.x.x.x.x.x.x.",
"x.x.x.x.x.x.x.x.x.x.x.x.x.x.x.x.x.x.x.X d a a x.x.x.x.r e x.x.x.x.x.x.x.x.x.x.x.x.x.x.x.x.x.x.x.",
"x.x.x.x.x.x.x.x.x.x.x.x.x.x.x.x.x.x.x.. : x.x.x.x.x.x.x.x.x.x.x.x.x.x.x.x.x.x.x.x.x.x.x.x.x.x.x.",
"x.x.x.x.x.x.x.x.x.x.x.x.x.x.x.x.x.x.x.x.x.x.x.x.x.x.x.x.x.x.x.x.x.x.x.x.x.x.x.x.x.x.x.x.x.x.x.x."
};
