/* XPM */
static char *c59690ef7a474dfde31b794ae7aad2e2JNCleSOC51i3K6xL[] = {
/* columns rows colors chars-per-pixel */
"48 48 123 2 ",
"   c None",
".  c black",
"X  c #001322",
"o  c #001E31",
"O  c #002435",
"+  c #002A33",
"@  c #00243A",
"#  c #00293A",
"$  c #003137",
"%  c #00333A",
"&  c gray20",
"*  c #003451",
"=  c #003B5E",
"-  c #004553",
";  c #004956",
":  c #00515E",
">  c #005A83",
",  c #01748D",
"<  c #006390",
"1  c #007690",
"2  c #007890",
"3  c #0169AC",
"4  c #0176A5",
"5  c #007BAD",
"6  c #0176BD",
"7  c #0172C7",
"8  c #017AC7",
"9  c #0073C9",
"0  c #017AC8",
"q  c #0082BC",
"w  c #0194B4",
"e  c #00A7BC",
"r  c #01A9BE",
"t  c #019AC7",
"y  c #01A3C7",
"u  c #00A9C7",
"i  c #0DABC7",
"p  c #00A7C8",
"a  c #01B5DE",
"s  c #01B8DD",
"d  c #0191EE",
"f  c #0192F1",
"g  c #0193FE",
"h  c #019CFE",
"j  c #02BBEE",
"k  c #04A5FE",
"l  c #03ABFE",
"z  c #01BCF1",
"x  c #01B5FE",
"c  c #00BBFE",
"v  c #01C3FE",
"b  c #02CAFE",
"n  c #01CAFE",
"m  c #04C9FE",
"M  c #01CCFE",
"N  c #00CDFE",
"B  c #01CDFE",
"V  c #00CDFF",
"C  c #02CCFE",
"Z  c #02CDFE",
"A  c #02CCFF",
"S  c #00CEFE",
"D  c #01CEFE",
"F  c #01CFFE",
"G  c #00CFFF",
"H  c #01CFFF",
"J  c #02CEFE",
"K  c #02CFFE",
"L  c #03CFFE",
"P  c #03CEFF",
"I  c #03C8FB",
"U  c #00D0FE",
"Y  c #01D0FE",
"T  c #01D1FE",
"R  c #01D0FF",
"E  c #01D1FF",
"W  c #02D0FE",
"Q  c #00D3FE",
"!  c #01D3FE",
"~  c #02D3FE",
"^  c #00D4FE",
"/  c #01D4FE",
"(  c #00D5FE",
")  c #01D5FE",
"_  c #01D4FF",
"`  c #02D4FE",
"'  c #02D5FE",
"]  c #00D8FE",
"[  c #00D9FE",
"{  c #01D9FE",
"}  c #00D8FF",
"|  c #00D9FF",
" . c #07DAFE",
".. c #10DBFE",
"X. c #11DBFE",
"o. c #00E0FE",
"O. c #01E0FE",
"+. c #00E1FE",
"@. c #01E1FE",
"#. c #01E0FF",
"$. c #00E1FF",
"%. c #00E2FE",
"&. c #00E3FE",
"*. c #01E3FE",
"=. c #00E2FF",
"-. c #6EEEFE",
";. c #6FEEFE",
":. c #838383",
">. c #909090",
",. c #89A2A5",
"<. c #BCBCBC",
"1. c gray78",
"2. c #C8C8C8",
"3. c #CCF8FE",
"4. c #CDF8FE",
"5. c #CCF9FE",
"6. c #FEFEFE",
"7. c #FEFFFE",
"8. c #FFFFFE",
"9. c #FEFEFF",
"0. c #FFFEFF",
"q. c #FEFFFF",
"w. c white",
/* pixels */
"                  . . . . . . . .                             . . . . . . . .                   ",
"                  . . . . . . . .                             . . . . . . . .                   ",
"                  . . . . . . . .                             . . . . . . . .                   ",
"                  . . . . . . . .                             . . . . . . . .                   ",
"                  . . . . . . . .                             . . . . . . . .                   ",
"          . . . + t t t t t y y t ; . . .             . . . ; u u u i 1.1.1.2.& . . .           ",
"        . . . . O v v v m V C V W - . . . .         . . . . - { { { ..q.q.q.6.& . . . .         ",
"        . . . . + v I I I V V V V - . . . .         . . . . - { { ` ..q.q.q.6.& . . . .         ",
"        . . . . + v v v v V V V n - . . . .         . . . . - { { { ..q.6.6.6.& . . . .         ",
"        . . . . + v v v I V V V V - . . . .         . . . . - { { { ..q.6.6.6.& . . . .         ",
"        > < < < 4 v v v v n n n m w , 1 1 ,         , 2 2 2 w [ { {  .-.-.-.-.,.>.>.>.:.        ",
". . . . q l x x x v v v v n n n n V V ! C a . . . . s ` ! ` { [ { { { O.o.o.o.5.q.q.q.<.. . . . ",
". . . . q l l l x c v v c I n I n C W C ! a . . . . s ` ! ` ` { { { { O.O.O.o.5.q.q.6.<.. . . . ",
". . . . q x x l x v v c v n n n n C C ! V a . . . . s ` ` ` ` { { { { O.O.O.o.5.q.q.6.<.. . . . ",
". . . . q x l x x v v v v n n n m V ! W V a . . . . s ` ` ` ` { { { { &.O.O.o.5.6.6.6.<.. . . . ",
". . . . q l x l x c v v v I n n m V W V ! a . . . . s ` ` ` ` { { { { O.O.O.o.4.6.6.6.<.. . . . ",
". . . . 6 h h k k x x c x x x c c v m n n n V Z Z Z Z W W Z W ( { ` ` { { { { O.O.&.&.e . . . . ",
". . . . 6 h k h k x x x x c c c c I I n m n V Z ! C W W ! V W ( ` ` ` { { { { O.&.&.&.e . . . . ",
". . . . 6 k h k k x x x x c c c c v n n n n V V V Z V V W W W ( ` ` ` { { { { O.&.O.O.e . . . . ",
". . . . 6 h h k k x x x x c c c c v n n n I V V Z Z W W W W W ( ` ` ` { { { { O.&.&.&.e . . . . ",
". . . . 8 h k h k x x x l c c c c v n n m n V V V V V ! W ! ! ! ` ` ` { { { { O.&.O.&.r . . . . ",
"        @ O o O = k k k k k k l l x c c v c v v I v n n Z I n V V V ! ` ` ` ` : $ $ $ %         ",
"        . . . . o h h h h k k k k x x c c c c v c v I I n n n V V I V ! ` ! ! + . . . .         ",
"        . . . . o h g h h k k k k x c x c c v v v v m n n n n V n n V ` ` ! ` + . . . .         ",
"        . . . . o h h h h k k k k x x c c c v v c v I n n n n n I V C W ` ` ` + . . . .         ",
"        . . . . o h h h h k k k k x c x x c v v v v I n n n n n V V V ` ` ` ` + . . . .         ",
"          . . . O 0 0 0 0 k k k k l x c x x v c c c I I I I n V n n m y p p p + . . .           ",
"                  . . . . d h h h k l l k k x x x c c v c c v I m m j . . . .                   ",
"                  . . . . d h h h k k k k l c x x c c v v v v I m v j . . . .                   ",
"                  . . . . d h h h k l k k k x x x x c c c v c I m m j . . . .                   ",
"                  . . . . d h h k k k l l l x x x x c v c v v n m m j . . . .                   ",
"                  . . . . f h h h k l k k l x c x x v c v c v I m m z . . . .                   ",
"                          . . . . 3 h h h h l l l k x x x x 5 . . . .                           ",
"                          . . . . 3 h h h h k k l k x x x x 5 . . . .                           ",
"                          . . . . 3 h h h h l k k k x x x x 5 . . . .                           ",
"                          . . . . 3 h h h h k k l k x x x x 5 . . . .                           ",
"                          . . . . 3 h h h h k k l k x x x x 5 . . . .                           ",
"                                  @ @ O O * g g h h * O + # #                                   ",
"                                  . . . . X g g g g X . . . .                                   ",
"                                  . . . . X g g g g X . . . .                                   ",
"                                  . . . . X g g g g X . . . .                                   ",
"                                  . . . . X g g g g X . . . .                                   ",
"                                    . . . X 9 7 7 7 X . . .                                     ",
"                                            . . . .                                             ",
"                                            . . . .                                             ",
"                                            . . . .                                             ",
"                                            . . . .                                             ",
"                                            . . . .                                             "
};
