/* XPM */
static char *_3921_2856d73402653a94add12c1b1b326331e7a3af6db128fcdd8763f34faf20284a[] = {
/* columns rows colors chars-per-pixel */
"70 70 12 1 ",
"  c #081A03",
". c #221E1C",
"X c #162C0D",
"o c #342720",
"O c #542A23",
"+ c #663931",
"@ c #294B1A",
"# c #3E7028",
"$ c #8F563B",
"% c #4E8F27",
"& c #94B333",
"* c None",
/* pixels */
"**********************************************************************",
"**********************************************************************",
"**********************************************************************",
"**********************************************************************",
"**********************************************************************",
"************************************X*********************************",
"*****************************XX***  @X********************************",
"**************************   @@X  XX@X**XXXXXX************************",
"**********************    @XXXX%%X%%@X  XX@@@@X***********************",
"********************  @@XXX%XX@@%X@@&@@@%%XX@X************************",
"******************* @@XXX@@%@X%@%%%%&X%@%%&@X@X***********************",
"******************** XXX%@@%X@X@@%X%%X%X%%@@X@@XX*********************",
"******************* X%X%%@@@XX@X@@@@%X@X@@&@@%&@@X********************",
"******************* X@@X@%@@%@XO@@@XXX%X@%&X%%&XX@X*X*****************",
"****************** X@@XX%@@%&@@O@%&@@X@OO@%X%%&&@X@X@X****************",
"****************  X%%X@%%%@%XX@OX%%&@X@oO@%X@%&@XX@@@X****************",
"*************** XX%X%@@%%%@@@XoO@%%%&&XXoOO@X&X@X%%X@X****************",
"************** XX%@X@OX%%@%@XooOX@@%%&@@@o@@%%&X@@%X@X****************",
"************* XXXXX@@oO@@%@@@Xo%XXX%%X@%o@@X@%%&%@%@X*****************",
"************* XX@XX@@%oO%&@%@X@@X%XX@@%@%%&@@%%&@%@X@X****************",
"************* XX@@@@%%%@%X@%X@%@X%X%@%@&@%%&@%%@&XXXX@X***************",
"************* X@%@@%%@X%@X%@X@%&@@%&X@%XXX@%%&@@%%&&@@X***************",
"************** @@@@%@X%%X@%%XX%&X%%&XX@@XX&@%%&@@%&@XX@X**************",
"************** @@X@@@%%X@@%%@X%%X@@&&@XX@%%&@%&@O@X@X%%X**************",
"************* XXX@X@%@X%@%X&%X@@&@@@&@%%&@%%@&@oO@&XX@%X**************",
"************* @@@XX%%@X%@@%%%@@@&X@@%@@%&@@@%@#@X@%&%@@X**************",
"************ X%XX@@%@%%XX@@%@@%%&O@%%%@@%X%&@@#XX@%&@%@X**************",
"************ @XXX@@@@%%X%%X%X%%%@oO@%%X@O@@&%X@#XX%@&@X***************",
"*********** XX@%%XXX@%X%@%&@X%@@%@o@@@@O%&X@%X@@#X&&@@X***************",
"*********** X@%@%X%XX@@X@@%%&XX@@%&X&XoOX%X%&X&&#X%XX@X***************",
"*********** XX%@%X%XoOXX@@@%&X&&X%@%%&X%XX%%&X&%%@X%%X****************",
"********** XX@X%@X%%XoO@@@@%X%%%&@X%%%&%@%%%&@@%%%X%@X****************",
"*********** XX@@XX%XX@O@@%@@@X@%%&@@%%&@X%%%@&X@%%&XXX****************",
"************ XX@XX@X%%o@@@%XXX&@%%&@%%@&X%@@@%oO@@&X&X****************",
"************* XX%XX%@%@o@%@@@%%@@%&@@@%@OXX@@%@oOXX%%@X***************",
"************** XXXX%@%Xo%%X%@%%&@@%X%&@@O@@&X%@@@&@X@@X***************",
"*************** @%@X%@XX%%X%X%%@@X@@@&%oO@@%&@X%%%XX&@X***************",
"*************** X@X@XXXX%%X@X@@&@@%&X@oo@@@%%&@@%%@%%@X***************",
"*************** XX%XXXXXXXXOX@%&X%%&XXo@XX@@%%&@%%@%@X****************",
"************** XXX@X@%XX@@XoO@%%X%%&&@XX@@%&@@&@@@X%@X****************",
"*************** XXXXXXX%%@X@oO@%X@%&@XXX@%%&@@%X%&X@X*****************",
"**************** XXX XX@%%%@@oXXXX&X@X%%X%%@@X@@@&XX******************",
"*****************   * XX@%%X%%X%@%%&X@@%X@@&@ XXXX@X******************",
"**********************  XXX%%%%@X%%%&%@%X    * X@ X*******************",
"************************   X@%%&@@%%O@%  ****** X*********************",
"*************************** @@%%&@%O+& *******************************",
"**************************** @%&OOOO+ ********************************",
"***************************** %OOOO+$o********************************",
"****************************** OOO+$$o********************************",
"******************************.OOO+$$o********************************",
"******************************.OO+++$o********************************",
"******************************.OO+++$o********************************",
"******************************.OO++$$o********************************",
"******************************.OO++$+o********************************",
"*****************************.OOO++$+o********************************",
"*****************************.OOOO+$$+o*******************************",
"*****************************.OO+OO+$+o*******************************",
"*****************************.OO+++$$$o*******************************",
"*****************************.OO+++$$$o*******************************",
"*****************************.OOO+++$$o*******************************",
"****************************.OOOOOO+$$+..o****************************",
"**************************..OOOO++++$$OO++o***************************",
"*************************.OOOOO++OO+$$$O..o***************************",
"*************************....+++OOO$O+$o******************************",
"*****************************.OOO+..OO+$o*****************************",
"*****************************.O++o**...+$o****************************",
"****************************.O+.o******..o****************************",
"****************************..o***************************************",
"**********************************************************************",
"**********************************************************************"
};
