/* XPM */
static char *b2cfba88d04e4248d0b500a02c12310fHhjz6MFKy112kgYQ[] = {
/* columns rows colors chars-per-pixel */
"48 48 208 2 ",
"   c None",
".  c #5A2E05",
"X  c #5D3005",
"o  c #623505",
"O  c #6B3F04",
"+  c #663904",
"@  c #6D4104",
"#  c #744504",
"$  c #7A4A05",
"%  c #764803",
"&  c #814E06",
"*  c #825005",
"=  c #8D5A05",
"-  c #925E04",
";  c #925F09",
":  c #966105",
">  c #966209",
",  c #9F6D12",
"<  c #AA6A02",
"1  c #B06C02",
"2  c #B57302",
"3  c #B97501",
"4  c #BC7A02",
"5  c #BA7C09",
"6  c #B37A0C",
"7  c #A26E11",
"8  c #A87413",
"9  c #A77314",
"0  c #B37E15",
"q  c #C17E01",
"w  c #BC830F",
"e  c #BE8305",
"r  c #B68116",
"t  c #BA8314",
"y  c #BF8917",
"u  c #BE8219",
"i  c #C68401",
"p  c #CA8500",
"a  c #CD8B00",
"s  c #C1850B",
"d  c #C58B0E",
"f  c #CC8E0A",
"g  c #C58907",
"h  c #D18E00",
"j  c #CF9103",
"k  c #CC920C",
"l  c #D39301",
"z  c #D89600",
"x  c #D79903",
"c  c #DB9B01",
"v  c #D29409",
"b  c #D59A0B",
"n  c #DA9E0B",
"m  c #C38C14",
"M  c #C2861A",
"N  c #CB961A",
"B  c #CB9517",
"V  c #D29413",
"C  c #D49C13",
"Z  c #D49E1B",
"A  c #D89D10",
"S  c #E09F00",
"D  c #DEA203",
"F  c #DDA20C",
"G  c #DCA314",
"H  c #D7A01C",
"J  c #DCA51B",
"K  c #DFA81E",
"L  c #E3A400",
"P  c #E8A700",
"I  c #E6A903",
"U  c #EBAB00",
"Y  c #E4A90E",
"T  c #E6AA08",
"R  c #F0AF00",
"E  c #EEB102",
"W  c #ECB30D",
"Q  c #F2B401",
"!  c #F6BB02",
"~  c #F8BE04",
"^  c #F0B408",
"/  c #F5BC0B",
"(  c #E2AD1E",
")  c #E2A916",
"_  c #ECB514",
"`  c #EBB51B",
"'  c #EEB91C",
"]  c #E9B317",
"[  c #F3BC13",
"{  c #F2BE1C",
"}  c #F1B718",
"|  c #CE9C22",
" . c #C99721",
".. c #D39F23",
"X. c #D5A123",
"o. c #DAA523",
"O. c #DEA924",
"+. c #DAA62A",
"@. c #DDAB2A",
"#. c #D6A42B",
"$. c #DFAF36",
"%. c #DCAB3C",
"&. c #D8A536",
"*. c #E2AD24",
"=. c #E1AE29",
"-. c #E5B125",
";. c #EAB523",
":. c #EDBA23",
">. c #E5B229",
",. c #E9B429",
"<. c #EDBE2B",
"1. c #F0BE21",
"2. c #E3B533",
"3. c #ECBD36",
"4. c #E2B43C",
"5. c #E5BA3D",
"6. c #E9BD3B",
"7. c #E6B834",
"8. c #F9C106",
"9. c #FAC30C",
"0. c #F6C015",
"q. c #F9C212",
"w. c #F6C21C",
"e. c #F9C41C",
"r. c #FCC915",
"t. c #F5C222",
"y. c #F9C524",
"u. c #FBCB25",
"i. c #F3C32B",
"p. c #F9C728",
"a. c #F9CA2A",
"s. c #FFD126",
"d. c #FFD229",
"f. c #EDC43C",
"g. c #EFC135",
"h. c #F2C93B",
"j. c #F9CE3B",
"k. c #F6CA32",
"l. c #FCD43C",
"z. c #FDD436",
"x. c #DAAD47",
"c. c #E7BD43",
"v. c #E8BE44",
"b. c #E3BC57",
"n. c #ECC445",
"m. c #E9C24B",
"M. c #F3CC45",
"N. c #F1CB4C",
"B. c #F4CB43",
"V. c #FCD744",
"C. c #FEDB46",
"Z. c #FEDB4B",
"A. c #F9D74C",
"S. c #EECA56",
"D. c #F3CD53",
"F. c #F1CD58",
"G. c #F6D354",
"H. c #FCD955",
"J. c #F3D25C",
"K. c #FCDC5D",
"L. c #F7D85D",
"P. c #FEE14E",
"I. c #FFE252",
"U. c #FEE65C",
"Y. c #FEE85E",
"T. c #EBC96F",
"R. c #EED068",
"E. c #F2D366",
"W. c #F7DA65",
"Q. c #F9DB63",
"!. c #F3D46C",
"~. c #F6D96B",
"^. c #F9DC6F",
"/. c #EED275",
"(. c #F7DB75",
"). c #FDE265",
"_. c #FEE964",
"`. c #FDE56D",
"'. c #FCE472",
"]. c #F9E17B",
"[. c #FBE678",
"{. c #EED383",
"}. c #F7DE84",
"|. c #F2DD94",
" X c #F9E582",
".X c #FCEA84",
"XX c #FAE78C",
"oX c #FEEC8A",
"OX c #FDED93",
"+X c #F9E598",
"@X c #FEF194",
"#X c #FEF19F",
"$X c #F6E4A4",
"%X c #FBEBA2",
"&X c #F7E8AA",
"*X c #FEF4AC",
"=X c #FEF2A2",
"-X c #FFF6BE",
";X c #FFF7BA",
":X c #FAE9B3",
">X c #FEF8C5",
",X c #FEF9CA",
"<X c #FEF7C0",
"1X c #FEFAD3",
"2X c #FEFBDC",
"3X c #FEFCE4",
"4X c #FEFDEC",
"5X c #FEFEF4",
/* pixels */
"                                    a l S S S S P Q [ r.                                        ",
"                            q h c L L L S S S c c z S Y 1.a.d.d.d.                              ",
"                        2 h P U P P P L S S c S z z z z l n 3.H.I.I.C.                          ",
"                      p U U U U P P L S S S S c z z z h h a h C J.`.Y.Y.I.                      ",
"                  2 S R R U P P P P L S S S S z z z z h h a p p h 4.[._._.Y.U.                  ",
"                q R Q R R R U P P U } 3.B.N.D.n.,.n z h h a a a p a ..]..XoXOXoX                ",
"              p Q Q R R R R R } E.+X/.b.%.+...&.x.b.R.c.v a p p p p p C  X*X-X>X=X              ",
"            l Q Q R R R R } }.|.4.z S z S z z z z a 3 M M i a a a p p p V XX1X3X2X*X            ",
"          S Q Q Q Q R R D.$X$.z S z c c S z ( z z l l a q 1 q p p p a p p Z #X5X5X3X*X          ",
"        P Q ! Q Q R R +X{.n S S S c S c z h Q.z z l l l h p 1 q a p p p p q %.-X5X5X2X          ",
"        ! ! ~ Q R ^ :XT.S S L S S S c c z z Z.b.h h h h z h a q 3 h p p p p p E.2X5X4X;X        ",
"      r.~ ! ! Q Q ^.T.c S L L S S S S S q S u.$Xh h h h h h a p 3 3 h p p p p V (.4X3X1X#X      ",
"      9.~ ! ! Q p.N.c L P P L L S S S c q S e.OXx.a h h h h h a p 2 p a p i i i =.&X1X1X-X      ",
"    z.8.! ! Q Q _ z L P P P P L L S S q a L 9.).$Xh h h h h h a h p 2 l p p i p a S.,X,X,XOX    ",
"    p./ ~ ! ! f q L U U U P L L L S z 2 l L / Z.:Xx.h h a a a a h h q q h p i i p *.XX=X#XoX    ",
"  U.q./ ! ! P < l U U R U U L P S S q q z U ~ z.XX$Xq a a a a a p h h 3 h p p p q f 5.W.Q.L.N.  ",
"  Z.q.9.~ / i 1 U E Q U U P L L S z 3 h c P ~ u.).>X&.p p p p p a a a p 4 h p p p p M 6.5.7.2.  ",
"  l.[ / / ! 4 i Q Q Q E U U U U P h a l c P ~ r.l..XOXg.*.b h p p p a h 3 h p q i i 6 N ..X.X.  ",
"  a.0./ / U 4 L Q L U U U U U U S z z z c P Q 8.r.C.Y.Y.Y.Y.U.A.f.7.J v q p p p i i 2 0 N N N   ",
"'.e.0.9.[ x 4 U Q a p l c c D D S S z ) c P E [ 9.u.l.l.V.V.Z.Z.C.V.t.V h q h p i i 2 , #.| | N ",
").e.w.[ [ a g Q ! E s p j l x c z S a M.F L U ] j.! 8.9.q.e.r.[ / L q p h q h p g p i ; #.#.| | ",
"K.e.e.w.0.i v ^ ! ! L e p a l x z z i ' G L c D p.Q Q Q Q E U L z 3 q h p q h p p i i % m m m m ",
"K.e.w.w.[ j c ^ ^ ! ~ x k f a l z l 4 ] F c x c t.P L L D c c z 2 q p a h q h p p p i # 5 4 5 3 ",
"K.y.e.w.w.x F [ [ [ ! Q e A l p h l 4 ] A x x z t.L L D c z z 2 4 p a p h p h p p i i # : : : : ",
"K.y.e.1.{ Y Y } [ _ / W W 2 n g j l 4 K l z x g ` P L D x x 2 4 p a a a a p h p p p i o = = = = ",
"Q.p.y.t.e.` Y } ' [ [ ] W F 2 s a a a j l l z x D L U U c 3 2 i p a a a a p h p p p i o = : : - ",
").p.p.e.t.<.G ' { [ ' _ _ W g 3 p a a j l l l c D L E _ I w i i a a a a a p z p p p i . : : ; : ",
"'.p.p.t.w.j.J ' ' ' ' ' _ W k 5 a a a l a l z x c D W a.k.@.p a j a a a h p z p p p 4 . = = = = ",
".Xa.t.t.{ B.>.;.:.' ' _ ] _ k w j a l x D D x x x D W j.H.5.a a j l j a h h l p p p < o & & & * ",
"  j.y.t.{ k.n.( ' ' _ ' ] ] m e j l D D D D D D x c I a.K.n.p l j j l j a S p p p p - + # # %   ",
"  H.t.t.{ 1.W.J ' ' ' ` ;.` m j x L U P D D D L D c c [ A.G.p l l l l l a S a p p p # + @ O O   ",
"  `.t.w.:.' L.4.*.;.;.;.;.-.m D E E E L D D F D D L D L l.K.f l j l l h c c h a p i . O @ @ @   ",
"  oXi.1.:.;.3.(.*.,.;.,.,.,.m U 8.! F k t t 6 w F F D D w.H.Z l l x x j D j j j j < X % % % %   ",
"    L.:.;.:.' (.n.*.,.,.,.,.H 9.8.D m m Z G J C w e F D D M.o.j l l j D D j j j j $ % $ $ $     ",
"    .X1.:.` :.3.&X*.-.,.,.O.;.u.G N X.K K K K K J C y v D ` >.l l l x I x j j x e @ % $ % $     ",
"      G.:.:.:.;.!.+X*.,.,.+.i.o.o.-.-.O.K O.O.( J G J b k D -.b D D I x j j j j = % * * *       ",
"      .X<.:.;.;.*.+X(.*.,.>.O.,.,.,.-.*.*.*.*.O.( J J G F b b b b I D j j v j e $ ; ; > >       ",
"        W.<.;.-.*.*.$X~.*.,.,.;.-.,.>.-.-.*.*.*.K J J G G F b F T D x v x b x > 7 9 9 9         ",
"        @XN.;.-.*.*.*.}.[.-.>.,.,.>.,.-.-.-.*.*.( K J J H F F E T F b b k b r 7 r r 0 0         ",
"          oXg.>.*.-.*.*.S. Xh.-.>.,.>.-.>.-.-.*.O.K K J H Y W F b b k C b B r y m y y           ",
"            .X7.>.=.*.*.*.,.W.).h.-.*.*.-.*.@.O.O.K K ` 0.W G b C C b C Z @...Z H Z             ",
"               X7.>.=.*.O.O.O.,.M.A.l.k.i.i.:.i.t.w.w.` H H C H H C C O.4.o.X.o.X.              ",
"                XXc.=.*.-.O.O.+.O.O.*.,.7.i.:.:.( K o.J H H H H H H @.N.2.@.@.@.                ",
"                  oXS.>.@.*.O.O.O.O.@.O.o.o.o.o.o.o.X.J o.X.H H H 6.G.6.6.5.7.                  ",
"                      ].5.*.@.@.@.@.@.+.+.@.+.+.o.o.o.o.X.H X.4.G.D.n.n.n.n.                    ",
"                        @X(.n.=.=.@.@.@.@.O.O.+.o.o.#.o.o.5.L.).J.S.J.N.                        ",
"                            @X XE.m.2.@.@.@.+.+.+.$.n.F.'.[.^.~.W.                              ",
"                                    @X@X.X.X X.XoX.X.X X                                        "
};
