/* XPM */
static char *_bfa174996a14ca4b47cc31ad035b3230eFZqnnyhVCuVm3p[] = {
/* columns rows colors chars-per-pixel */
"48 48 141 2 ",
"   c None",
".  c black",
"X  c #010000",
"o  c #090000",
"O  c #0B0000",
"+  c #160000",
"@  c #2F0000",
"#  c #310000",
"$  c #320000",
"%  c #340000",
"&  c #370000",
"*  c #380000",
"=  c #3A0000",
"-  c #3E0000",
";  c #3F0000",
":  c #420000",
">  c #440000",
",  c #450000",
"<  c #470000",
"1  c #4B0000",
"2  c #4D0000",
"3  c #550000",
"4  c #570000",
"5  c #5D0000",
"6  c #600000",
"7  c #630000",
"8  c #650000",
"9  c #6C0000",
"0  c #6D0000",
"q  c #790000",
"w  c #7A0000",
"e  c #7D0000",
"r  c #522D2D",
"t  c gray32",
"y  c gray35",
"u  c #800000",
"i  c #810100",
"p  c #820000",
"a  c #830000",
"s  c #820100",
"d  c #840000",
"f  c #880000",
"g  c #890000",
"h  c #8D0000",
"j  c #8E0000",
"k  c #8F0000",
"l  c #910000",
"z  c #920000",
"x  c #990000",
"c  c #990100",
"v  c #9A0100",
"b  c #9D0000",
"n  c #9E0000",
"m  c #9E0100",
"M  c #A20000",
"N  c #A40000",
"B  c #A50000",
"V  c #A80000",
"C  c #A90000",
"Z  c #A80100",
"A  c #AA0000",
"S  c #AB0000",
"D  c #AB0100",
"F  c #AC0000",
"G  c #AE0000",
"H  c #AF0000",
"J  c #B00000",
"K  c #B00100",
"L  c #B20000",
"P  c #B20100",
"I  c #B30100",
"U  c #B40000",
"Y  c #B50000",
"T  c #B40100",
"R  c #B60000",
"E  c #B70000",
"W  c #B60100",
"Q  c #B70100",
"!  c #B80000",
"~  c #B80100",
"^  c #BA0000",
"/  c #BC0000",
"(  c #BD0100",
")  c #BE0000",
"_  c #BF0000",
"`  c #BE0100",
"'  c #BF0100",
"]  c #C00000",
"[  c #C10000",
"{  c #C00100",
"}  c #C10100",
"|  c #C20100",
" . c #C30100",
".. c #C40000",
"X. c #C50000",
"o. c #C50100",
"O. c #C40001",
"+. c #C60000",
"@. c #C70000",
"#. c #C60100",
"$. c #C70100",
"%. c #C80000",
"&. c #C90000",
"*. c #C80100",
"=. c #C90100",
"-. c #C90001",
";. c #CA0000",
":. c #CB0000",
">. c #CB0100",
",. c #CC0000",
"<. c #CD0000",
"1. c #CC0100",
"2. c #CE0000",
"3. c #CF0000",
"4. c #CF0100",
"5. c #D00000",
"6. c #D30000",
"7. c #D50000",
"8. c #D50001",
"9. c #D80000",
"0. c #D90000",
"q. c #D90001",
"w. c #DA0000",
"e. c #DD0000",
"r. c #DE0000",
"t. c #DE0101",
"y. c #DE0200",
"u. c #DE2526",
"i. c #E74B4B",
"p. c #E85050",
"a. c #E95555",
"s. c #D66E6E",
"d. c gray63",
"f. c gray66",
"g. c #B2B2B2",
"h. c #EA8080",
"j. c #D0C6C6",
"k. c #D2D2D2",
"l. c #FBEFEF",
"z. c #FDFDFD",
"x. c #FEFEFE",
/* pixels */
"                                                                                                ",
"                                                                                                ",
"                                                                                                ",
"                                                                                                ",
"                                                                                                ",
"                                                                                                ",
"                                                                                                ",
"                                                                                                ",
"                                                                                                ",
"                                                                                                ",
"                                                                                                ",
"                                                                                                ",
"                                . . . . .             . . . . .                                 ",
"                                . . . . .             . . . . .                                 ",
"                                - , , , :             , 1 r y t                                 ",
"                            . . i | @.;.f . .     . . k 8.h.x.f.. .                             ",
"                            . . e | @.@.d . .     . . k 8.h.x.f.. .                             ",
"                        . . 9 w C | | @.Q k z . . d z ( 8.u.i.s.g.d.. .                         ",
"                        . . k C Q ( | @.$.;.;.. . H 4.6.8.9.r.a.x.k.. .                         ",
"                        . . k H Q ( | @.@.;.;.o O I 4.6.8.9.r.p.l.j.. .                         ",
"                        . . d m C I Q Q ^ @.@.;.;.4.;.4.6.6.8.9.r.^ . .                         ",
"                        . . d m C I I Q ^ @.@.@.;.;.;.4.4.6.8.9.r.^ . .                         ",
"                            3 5 k C C H I ( | @.| ;.;.;.4.4.6.^ i w                             ",
"                            . . 8 v m B C Q Q ( ( @.@.@.@.;.4.f . .                             ",
"                            . . 8 v m N C Q Q ( ( @.@.@.@.4.4.f . .                             ",
"                                & - 9 m N C C Q Q ( | | @.f 3 2                                 ",
"                                . . 1 v m N B I I ^ ^ | | 7 . .                                 ",
"                                . . 1 x m N N I I ^ ^ | | 7 . .                                 ",
"                                      o & v v B B H Q : O                                       ",
"                                      . # v v B N H I * .                                       ",
"                                      . # 9 9 m m i e * .                                       ",
"                                          . . k k + .                                           ",
"                                          . . k k + .                                           ",
"                                              & #                                               ",
"                                              . .                                               ",
"                                              . .                                               ",
"                                                                                                ",
"                                                                                                ",
"                                                                                                ",
"                                                                                                ",
"                                                                                                ",
"                                                                                                ",
"                                                                                                ",
"                                                                                                ",
"                                                                                                ",
"                                                                                                ",
"                                                                                                ",
"                                                                                                "
};
