/* XPM */
static char *_ad2ef3582404682df2e6f4e00e14171J3DlQBu1lEL32YC9[] = {
/* columns rows colors chars-per-pixel */
"48 48 166 2 ",
"   c None",
".  c black",
"X  c #07010A",
"o  c #08010B",
"O  c #08010C",
"+  c #09040D",
"@  c #15031D",
"#  c #15031E",
"$  c #190522",
"%  c #1B0525",
"&  c #1B0726",
"*  c #1D0729",
"=  c #1D0B29",
"-  c #1F0C2C",
";  c #20072D",
":  c #260F35",
">  c #2C0A3E",
",  c #2D0B3F",
"<  c #231333",
"1  c #281438",
"2  c #2A143D",
"3  c #2E0B41",
"4  c #2F0D43",
"5  c #300B44",
"6  c #350E4A",
"7  c #311846",
"8  c #341448",
"9  c #37144D",
"0  c #351C4A",
"q  c #38194F",
"w  c #3B0F53",
"e  c #391A50",
"r  c #391B50",
"t  c #391B51",
"y  c #3A1C52",
"u  c #3C1B54",
"i  c #3D1F56",
"p  c #3E1659",
"a  c #3E2056",
"s  c #41115B",
"d  c #44255F",
"f  c #4C0C6B",
"g  c #4C0C6C",
"h  c #491767",
"j  c #471864",
"k  c #481964",
"l  c #4B1A69",
"z  c #511472",
"x  c #511473",
"c  c #521573",
"v  c #521474",
"b  c #521574",
"n  c #531675",
"m  c #541675",
"M  c #541776",
"N  c #551978",
"B  c #561A79",
"V  c #571A79",
"C  c #571B7B",
"Z  c #581B7B",
"A  c #581C7C",
"S  c #581D7C",
"D  c #5A1E7E",
"F  c #5A1F7E",
"G  c #472265",
"H  c #4C246B",
"J  c #4B286A",
"K  c #4B2B6A",
"L  c #4C286A",
"P  c #532974",
"I  c #542A77",
"U  c #5A257E",
"Y  c #592C7C",
"T  c #5A2E7F",
"R  c #60506E",
"E  c #6B6D6B",
"W  c #5B1F80",
"Q  c #5B2080",
"!  c #5C2081",
"~  c #5C2181",
"^  c #5D2283",
"/  c #5E2484",
"(  c #5F2484",
")  c #5F2585",
"_  c #5F2586",
"`  c #5C3482",
"'  c #5C3582",
"]  c #602687",
"[  c #612688",
"{  c #612788",
"}  c #612789",
"|  c #622789",
" . c #642A8B",
".. c #642B8B",
"X. c #642A8C",
"o. c #642B8C",
"O. c #652B8D",
"+. c #642C8C",
"@. c #652C8E",
"#. c #652D8E",
"$. c #662D8E",
"%. c #662E8F",
"&. c #603087",
"*. c #603487",
"=. c #613088",
"-. c #62328A",
";. c #63328B",
":. c #64308D",
">. c #672E90",
",. c #672F90",
"<. c #672E91",
"1. c #672F91",
"2. c #683091",
"3. c #683092",
"4. c #693092",
"5. c #693193",
"6. c #693194",
"7. c #693294",
"8. c #693394",
"9. c #693295",
"0. c #693395",
"q. c #6A3395",
"w. c #6A3396",
"e. c #6A3794",
"r. c #6B3496",
"t. c #6B3497",
"y. c #6B3597",
"u. c #6C3497",
"i. c #6B3498",
"p. c #6C3598",
"a. c #6C3698",
"s. c #6C3699",
"d. c #6C3799",
"f. c #6E379A",
"g. c #6E389B",
"h. c #6E399B",
"j. c #6F399B",
"k. c #6E389C",
"l. c #6F3A9C",
"z. c #703B9D",
"x. c #703B9E",
"c. c #713C9F",
"v. c #713D9F",
"b. c #723C9F",
"n. c #713CA0",
"m. c #733FA1",
"M. c #743FA2",
"N. c #7440A3",
"B. c #7642A4",
"V. c #7643A5",
"C. c #7744A7",
"Z. c #7E4EA9",
"A. c #8F65B5",
"S. c gray54",
"D. c #8D8D8D",
"F. c #AEAEAE",
"G. c #AD8FC9",
"H. c #AB95C1",
"J. c #B092C9",
"K. c #B092CA",
"L. c #B396CC",
"P. c #BCB8C0",
"I. c #C5C6C5",
"U. c #D0D0D0",
"Y. c #F2EDF6",
"T. c #FEFEFE",
/* pixels */
"                                                                                                ",
"                                                                                                ",
"                                                                                                ",
"                                                                                                ",
"                                                                                                ",
"                                                                                                ",
"                                                                                                ",
"                                                                                                ",
"                                                                                                ",
"                                                                                                ",
"                                                                                                ",
"                                                                                                ",
"                                  . . .                 . . .                                   ",
"                                  . . . .             . . . .                                   ",
"                                2 q r y 7             0 a R S.E                                 ",
"                            . . r 1.9.u.G . .     . . L c.K.T.D.. .                             ",
"                            . . r <.9.u.G . .     . . K c.K.T.D.. .                             ",
"                        . . p l U @.3.9.:.Y P . . I T q.c.Z.A.H.U.F.. .                         ",
"                        . . k ~ { @.3.8.q.a.&.. . ;.l.c.c.m.V.L.T.I.. .                         ",
"                        . . j ~ ] @.<.3.9.a.=.+ + =.l.l.c.N.B.G.Y.P.. .                         ",
"                        . . s m F ] ] ] X.9.8.u.a.a.a.j.j.c.c.N.C.' . .                         ",
"                        . . s b F ] | | X.3.9.u.9.a.a.j.j.c.c.N.V.' . .                         ",
"                            4 6 h F U W | <.>.9.9.q.q.j.a.j.l.*.K d                             ",
"                            . . > z m Z F ] | X.@.9.9.q.q.a.j.a . .                             ",
"                            . . > z m C F | { X.@.9.9.q.q.a.j.i . .                             ",
"                                & * w b C W ~ ] { @.@.3.9.H 1 <                                 ",
"                                  . 3 z b C C ) ) { @.3.3.r .                                   ",
"                                  . 3 z b C F ) ) ..@.:.3.u .                                   ",
"                                      X ; c c A Z / ) 1 +                                       ",
"                                      . & c c C C / ) ; .                                       ",
"                                        $ > 5 b c 9 8 =                                         ",
"                                          . O f f o .                                           ",
"                                          . o f g O .                                           ",
"                                              # #                                               ",
"                                              . .                                               ",
"                                              . .                                               ",
"                                                                                                ",
"                                                                                                ",
"                                                                                                ",
"                                                                                                ",
"                                                                                                ",
"                                                                                                ",
"                                                                                                ",
"                                                                                                ",
"                                                                                                ",
"                                                                                                ",
"                                                                                                ",
"                                                                                                "
};
