/* XPM */
static char *ba333ee66a3742f6a82e26b5e9919666oj6sLkvb9PJaUmAG[] = {
/* columns rows colors chars-per-pixel */
"48 48 208 2 ",
"   c None",
".  c black",
"X  c #030000",
"o  c #040000",
"O  c #120000",
"+  c #140000",
"@  c #170000",
"#  c #190000",
"$  c #1C0000",
"%  c #1D0000",
"&  c #270000",
"*  c #290000",
"=  c #2D0000",
"-  c #2F0000",
";  c #310000",
":  c #320000",
">  c #350000",
",  c #3B0000",
"<  c #3F0000",
"1  c #410000",
"2  c #420000",
"3  c #440000",
"4  c #460000",
"5  c #470000",
"6  c #480000",
"7  c #490000",
"8  c #490100",
"9  c #4A0000",
"0  c #520000",
"q  c #530000",
"w  c #540000",
"e  c #550000",
"r  c #580000",
"t  c #5E0000",
"y  c #620000",
"u  c #630000",
"i  c #640000",
"p  c #650000",
"a  c #690000",
"s  c #6B0000",
"d  c #6E0000",
"f  c #710000",
"g  c #720000",
"h  c #740000",
"j  c #740100",
"k  c #7C0000",
"l  c #7D0000",
"z  c #7E0000",
"x  c #7E0100",
"c  c #535353",
"v  c #555555",
"b  c #626262",
"n  c #686868",
"m  c #820000",
"M  c #890100",
"N  c #8E0000",
"B  c #8F0000",
"V  c #8E0100",
"C  c #900000",
"Z  c #930100",
"A  c #930101",
"S  c #930200",
"D  c #950000",
"F  c #960000",
"G  c #970100",
"H  c #960001",
"J  c #960101",
"K  c #970202",
"L  c #980000",
"P  c #990000",
"I  c #980100",
"U  c #990100",
"Y  c #9A0000",
"T  c #9A0100",
"R  c #9B0100",
"E  c #9E0000",
"W  c #9F0000",
"Q  c #9E0100",
"!  c #9F0100",
"~  c #9F0001",
"^  c #9E0101",
"/  c #9F0101",
"(  c #A10000",
")  c #A10001",
"_  c #A20000",
"`  c #A20001",
"'  c #A30001",
"]  c #A40000",
"[  c #A50000",
"{  c #A50100",
"}  c #A40001",
"|  c #A50001",
" . c #A60000",
".. c #A70000",
"X. c #A70001",
"o. c #AB0000",
"O. c #AB0100",
"+. c #AB0101",
"@. c #AC0000",
"#. c #AD0000",
"$. c #AE0000",
"%. c #AF0000",
"&. c #AE0100",
"*. c #B00000",
"=. c #B10100",
"-. c #B20000",
";. c #B30000",
":. c #B20100",
">. c #B30100",
",. c #B40100",
"<. c #B60000",
"1. c #B70000",
"2. c #B60100",
"3. c #B70100",
"4. c #B90000",
"5. c #B90100",
"6. c #BA0100",
"7. c #BC0000",
"8. c #BD0000",
"9. c #BC0100",
"0. c #BD0100",
"q. c #BE0000",
"w. c #BF0000",
"e. c #BE0100",
"r. c #BF0100",
"t. c #BE0101",
"y. c #C00000",
"u. c #C10000",
"i. c #C10100",
"p. c #C00001",
"a. c #C10101",
"s. c #C20100",
"d. c #C30100",
"f. c #C20001",
"g. c #C20101",
"h. c #C20200",
"j. c #C30200",
"k. c #C40100",
"l. c #C50100",
"z. c #C40001",
"x. c #C40101",
"c. c #C70000",
"v. c #C60100",
"b. c #C70100",
"n. c #C40200",
"m. c #C50200",
"M. c #C60200",
"N. c #C70200",
"B. c #C80000",
"V. c #C90000",
"C. c #C80100",
"Z. c #C90100",
"A. c #C80001",
"S. c #C90001",
"D. c #CA0000",
"F. c #CB0000",
"G. c #CA0100",
"H. c #CB0100",
"J. c #CA0001",
"K. c #C80200",
"L. c #CC0000",
"P. c #CD0000",
"I. c #CC0100",
"U. c #CD0100",
"Y. c #CF0100",
"T. c #CF0101",
"R. c #D00000",
"E. c #D10000",
"W. c #D00100",
"Q. c #D10100",
"!. c #D00101",
"~. c #D10101",
"^. c #D20100",
"/. c #D20001",
"(. c #D20101",
"). c #D50000",
"_. c #D50001",
"`. c #D60000",
"'. c #D60001",
"]. c #D60102",
"[. c #D60303",
"{. c #D60304",
"}. c #DD0000",
"|. c #DC0100",
" X c #DC0101",
".X c #DE0000",
"XX c #DE0101",
"oX c #DD0201",
"OX c #DF0200",
"+X c #DE0201",
"@X c #DF0201",
"#X c #DE0301",
"$X c #957777",
"%X c #A59494",
"&X c #A8A7A7",
"*X c #A8A7A8",
"=X c gray66",
"-X c gray70",
";X c #F19696",
":X c #F19797",
">X c #F4ABAB",
",X c #F9E0E0",
"<X c #FAE0E0",
"1X c #FAE1E1",
"2X c #FDFDFD",
"3X c #FEFEFE",
"4X c #FFFEFE",
"5X c #FEFEFF",
/* pixels */
"                  . . . . . . . .                             . . . . . . . .                   ",
"                  . . . . . . . .                             . . . . . . . .                   ",
"                  . . . . . . . .                             . . . . . . . .                   ",
"                  . . . . . . . .                             . . . . . . . .                   ",
"                  . . . . . . . .                             . . . . . . . .                   ",
"          . . . 2 M M M M B B C B 4 . . .             . . . 6 G G G G -X-X-X-Xv . . .           ",
"        . . . . < s.n.s.s.A.A.I.A.4 . . . .         . . . . 9 '.'.'.'.5X5X5X5Xc . . . .         ",
"        . . . . 2 s.s.n.n.A.A.I.A.6 . . . .         . . . . 6 '.'.'.[.5X5X5X5Xc . . . .         ",
"        . . . . < s.s.s.j.A.A.A.A.4 . . . .         . . . . 6 '.'.W.{.5X5X5X5Xc . . . .         ",
"        . . . . < s.s.n.n.A.I.A.I.4 . . . .         . . . . 6 '.'.'.'.5X5X5X5Xc . . . .         ",
"        2 6 4 4 s s.s.s.s.A.A.A.A.x w w w r         w w w w m '.'.'.'.;X;X;X;X$Xn n n b         ",
". . . . g #.#.#.:.s.0.0.0.N.A.K.A.A.I.I.K.A.. . . . B W.W.W.W.'.'.'.'. X XOXOX>X5X5X5X=X. . . . ",
". . . . g #.#.#.:.0.s.0.0.A.n.A.N.K.I.I.I.A.. . . . B W.W.W.W.'.'.'.'. X XOXOX>X5X2X2X&X. . . . ",
". . . . g #.#.o.:.0.0.0.0.A.N.K.N.A.I.I.A.A.. . . . B W.W.W.'.'.'.'.'. XOXOX X>X5X2X5X&X. . . . ",
". . . . g #.#.#.:.0.s.0.0.A.A.A.K.A.I.I.I.A.. . . . B I.W.W.W.'.'.'.'.OXOX X X>X5X2X2X&X. . . . ",
". . . . g o.o.o.:.0.0.0.0.n.n.n.N.A.I.I.I.n.@ @ @ @ G W.W.I.W.'.'.'.'. XOX X X;X,X,X,X%X. . . . ",
". . . . p / / / | :.:.:.#.3.3.3.3.s.n.n.A.A.A.A.I.A.I.I.I.I.I.W.W.'.W.'.'.'.'.'.OX XOXG . . . . ",
". . . . a / / / | :.:.:.:.3.3.3.3.s.N.A.n.A.A.I.A.I.A.I.I.I.I.W.W.W.W.'.'.'.'. XOXOX XC . . . . ",
". . . . a / / / | :.:.:.:.3.3.:.3.s.K.N.A.A.A.A.I.A.I.I.I.I.I.'.W.W.W.'.'.'.'. X#X#X#XG . . . . ",
". . . . a / Q Q { 3.:.:.:.3.3.3.3.s.A.n.n.A.I.I.A.I.I.I.A.I.I.W.W.W.W.'.'.W.'. XOX X#XC . . . . ",
". . . . s ' Q Q { :.:.:.:.3.3.3.3.s.n.n.A.A.A.A.A.A.I.A.I.I.I.W.W.'.W.'.'.'.'.#XOX@X#XK . . . . ",
"        $ $ # $ 4 Q Q Q Q | | o.| :.5.5.5.5.s.s.s.s.n.N.A.A.A.A.A.A.A.W.W.W.W.t * * & *         ",
"        . . . . : R G L R ' | ' | #.5.3.5.3.0.0.0.s.s.N.A.n.A.A.A.K.A.W.I.W.Y.2 . . . .         ",
"        . . . . - L R R R ' ' | ' :.3.3.3.3.0.0.0.0.N.N.A.N.K.K.A.A.A.I.W.W.Y.4 . . . .         ",
"        . . . . : L R R K ' ' ' | #.3.3.3.3.s.0.0.0.n.A.A.A.A.A.A.A.A.W.W.W.Y.2 . . . .         ",
"        . . . . : L R R L ' ' ' ' #.3.3.3.5.0.0.0.s.n.n.A.n.N.A.A.A.A.W.W.W.Y.4 . . . .         ",
"          . . . > x x x x ' ' ' ' #.:.3.:.:.0.0.0.0.s.n.n.n.N.n.n.A.n.o.o.+.+.6 . . .           ",
"                  . . . . L L R G ' | | | | :.:.:.:.5.0.0.5.s.n.z.z.z.. . . .                   ",
"                  . . . . G K R L ' ' | | | :.:.:.:.5.0.0.0.0.n.z.n.f.. . . .                   ",
"                  . . . . K L R L ' | ' | | :.:.:.:.5.0.0.0.s.n.n.z.s.. . . .                   ",
"                  . . . . L L R L ' | ' | | :.:.:.:.5.0.0.0.0.n.n.z.s.. . . .                   ",
"                  . . . . R L L L ' ' | | | :.:.:.:.5.0.5.5.s.n.n.n.s.. . . .                   ",
"                          @ O O O a / R R R | | | | :.:.3.:.x @ @ @ #                           ",
"                          . . . . u L R K R | | | | #.:.:.:.g . . . .                           ",
"                          . . . . p K R L R ' | | | #.:.:.:.j . . . .                           ",
"                          . . . . u L R R R | | | ' &.3.:.:.j . . . .                           ",
"                          . . . . p L R L L | | | | #.:.:.:.j . . . .                           ",
"                                  < < < 2 2 L L L L u 6 6 8 4                                   ",
"                                  . . . . . B C B B - . . . .                                   ",
"                                  . . . . o B C B C - . . . .                                   ",
"                                  . . . . . C B B B - . . . .                                   ",
"                                  . . . . o C C B B - . . . .                                   ",
"                                    . . . o a p p p - . . .                                     ",
"                                            . . . .                                             ",
"                                            . . . .                                             ",
"                                            . . . .                                             ",
"                                            . . . .                                             ",
"                                            . . . .                                             "
};
